<svg xmlns="http://www.w3.org/2000/svg" width="60.198" height="66.063" viewBox="0 0 60.198 66.063">
  <g id="_1" data-name="1" transform="translate(-156.191)">
    <g id="Layer_x0020_2" transform="translate(156.191)">
      <path id="Pfad_219" data-name="Pfad 219" d="M1766.106,0H1746V6.7h13.4V44.52a40.686,40.686,0,0,1-6.7-19.328V13.4H1746V25.431a47.742,47.742,0,0,0,6.7,21,46.875,46.875,0,0,0,6.7,8.617,43.717,43.717,0,0,0,6.7,5.685Zm6.7,64.626a32.182,32.182,0,0,0,3.291,1.436,33.165,33.165,0,0,0,3.351-1.436V6.7h6.7V60.736a46.778,46.778,0,0,0,6.7-5.685V6.7h6.7V46.435a46.919,46.919,0,0,0,6.642-21V0h-33.39Z" transform="translate(-1746)" fill="#ffcc3f" fill-rule="evenodd"/>
    </g>
  </g>
</svg>
